<svg width="32" height="32" viewBox="0 0 32 32" fill="none" xmlns="http://www.w3.org/2000/svg">
<circle cx="16" cy="16" r="7" fill="#62C554"/>
<circle cx="16" cy="16" r="9.5" stroke="#151515"/>
<rect x="2" y="14" width="3" height="4" rx="1" fill="#F4BE4F"/>
<rect x="27" y="14" width="3" height="4" rx="1" fill="#F4BE4F"/>
<rect x="14" y="2" width="4" height="3" rx="1" fill="#EB6A5F"/>
<rect x="4" y="6.82843" width="4" height="2" rx="1" transform="rotate(-45 4 6.82843)" fill="#151515"/>
<rect width="4" height="2" rx="1" transform="matrix(0.707107 0.707107 0.707107 -0.707107 4 24.4142)" fill="#151515"/>
<rect x="28.2427" y="24.4142" width="4" height="2" rx="1" transform="rotate(135 28.2427 24.4142)" fill="#151515"/>
<rect width="4" height="2" rx="1" transform="matrix(-0.707107 -0.707107 -0.707107 0.707107 28.2427 6.82843)" fill="#151515"/>
<rect x="14" y="27" width="4" height="3" rx="1" fill="#EB6A5F"/>
</svg>
